<?xml version="1.0" encoding="UTF-8" standalone="no"?>
<!-- Created with Inkscape (http://www.inkscape.org/) -->

<svg
   version="1.1"
   id="svg2"
   width="2220"
   height="1252"
   viewBox="0 0 2220 1252"
   sodipodi:docname="surface1.png"
   inkscape:export-filename="surface1.png"
   inkscape:export-xdpi="96"
   inkscape:export-ydpi="96"
   xmlns:inkscape="http://www.inkscape.org/namespaces/inkscape"
   xmlns:sodipodi="http://sodipodi.sourceforge.net/DTD/sodipodi-0.dtd"
   xmlns="http://www.w3.org/2000/svg"
   xmlns:svg="http://www.w3.org/2000/svg">
  <defs
     id="defs6" />
  <sodipodi:namedview
     id="namedview4"
     pagecolor="#ffffff"
     bordercolor="#666666"
     borderopacity="1.0"
     inkscape:showpageshadow="2"
     inkscape:pageopacity="0.0"
     inkscape:pagecheckerboard="0"
     inkscape:deskcolor="#d1d1d1"
     showgrid="true">
    <inkscape:grid
       type="xygrid"
       id="grid588" />
  </sodipodi:namedview>
  <g
     inkscape:groupmode="layer"
     inkscape:label="Image"
     id="g8">
    <g
       id="g3035"
       transform="translate(23.029461,42.324341)">
      <path
         style="opacity:1;fill:#42679e;fill-opacity:1;stroke-width:0.75"
         d="m 1077.2923,874.53543 c -16.4543,-0.6607 -31.1702,-1.8289 -47.5942,-3.7783 -12.6907,-1.5062 -35.81874,-5.3218 -40.49507,-6.6808 -1.44097,-0.4187 -3.7305,-0.7613 -5.08777,-0.7613 -3.97463,0 -24.83468,-5.81962 -41.04218,-11.45017 -8.25,-2.86605 -16.51875,-5.64525 -18.375,-6.17603 -6.16372,-1.76242 -35.43777,-14.35717 -40.11629,-17.25945 -0.82978,-0.51472 -2.50149,-1.16745 -3.71491,-1.4505 -1.21342,-0.28297 -8.63842,-3.89392 -16.5,-8.02432 -16.47893,-8.65778 -16.4802,-8.65845 -22.84571,-11.7423 l -4.80193,-2.32635 -3.4476,2.0271 c -1.89619,1.11487 -4.96657,2.46697 -6.82307,3.00465 -14.88436,4.311 -13.79709,4.1637 -30.75046,4.1652 -14.73762,0 -16.99614,-0.1788 -26.25,-2.09333 -5.56875,-1.15207 -11.55937,-2.25915 -13.3125,-2.46015 -3.46813,-0.39757 -4.34013,-2.01247 -1.47498,-2.73157 4.62846,-1.16168 18.71966,-14.6742 21.22962,-20.35778 8.73082,-19.77022 11.89502,-31.38885 13.84837,-50.85008 1.32766,-13.22745 0.55106,-43.70467 -1.48405,-58.24132 -2.74884,-19.63455 -8.58386,-43.8771 -14.01121,-58.21185 -3.11993,-8.24033 -11.28313,-23.91818 -13.59479,-26.10945 -0.921,-0.873 -1.68037,-2.01548 -1.6875,-2.53875 -0.0243,-1.7817 -9.37276,-10.29045 -13.99305,-12.73605 -5.50608,-2.91458 -10.89569,-3.23858 -16.76629,-1.00793 -7.18961,2.73188 -19.5273,15.34223 -22.34348,22.83728 -8.04126,21.40132 -10.95945,42.6471 -9.27882,67.5543 1.21932,18.07035 5.44973,46.4697 9.13521,61.326 1.34092,5.40525 4.75761,13.61047 6.87252,16.50435 0.51309,0.70215 0.7009,1.50855 0.41734,1.79212 -0.59806,0.59805 -4.72274,-2.42002 -9.55639,-6.99255 -1.85625,-1.75597 -3.65158,-3.19455 -3.98963,-3.19687 -0.56626,-0.008 -6.75531,-4.79663 -17.01037,-13.1727 -2.26875,-1.8531 -5.8125,-4.33103 -7.875,-5.50658 -2.0625,-1.17555 -4.59375,-2.97142 -5.625,-3.99075 -4.95643,-4.89907 -46.75749,-31.30927 -49.58284,-31.32675 -0.66431,-0.008 -2.52056,-0.90037 -4.125,-1.9917 -6.74134,-4.58542 -32.6878,-15.14205 -40.04216,-16.29165 -1.44375,-0.22567 -6,-1.11435 -10.125,-1.97482 -7.32014,-1.52693 -22.11691,-2.16855 -26.89092,-1.16595 -1.09125,0.2292 -2.82783,0.59182 -3.85908,0.80595 -1.28341,0.26647 -1.875,0.0623 -1.875,-0.64733 0,-0.70305 2.11196,-1.45987 6.5625,-2.35162 13.2113,-2.6472 34.18002,-1.26083 51.5625,3.40905 3.3,0.88657 7.51875,1.8915 9.375,2.23312 10.75906,1.9803 49.92997,18.86408 68.12909,29.36558 10.56573,6.09682 17.69538,9.27922 17.05609,7.61332 -0.26378,-0.68745 -1.02829,-5.66805 -1.69891,-11.06812 -1.8497,-14.8944 -1.62059,-39.98453 0.48004,-52.56825 0.89517,-5.3625 1.92179,-11.60625 2.28137,-13.875 0.74419,-4.69545 1.94597,-9.09713 3.37876,-12.375 4.49833,-10.29135 8.13503,-17.2023 11.11224,-21.117 1.93123,-2.53935 3.51132,-4.9116 3.51132,-5.27168 0,-1.0095 9.14999,-9.84307 11.71392,-11.3088 1.25321,-0.7164 4.45745,-2.55652 7.12053,-4.08915 2.66308,-1.53262 7.02415,-3.35572 9.69126,-4.05142 5.59814,-1.46018 16.4864,-1.6194 22.07233,-0.32288 3.48231,0.80835 12.02684,4.6473 18.68211,8.3937 5.04682,2.841 18.60038,16.93125 21.89999,22.76723 0.93289,1.65 3.73509,6.51427 6.22711,10.80945 5.19161,8.94825 9.94544,19.8243 11.99402,27.44055 0.77667,2.8875 2.26223,8.11875 3.30126,11.625 4.5729,15.43155 8.55078,38.19675 10.28755,58.875 0.4504,5.3625 1.02762,18.60937 1.28272,29.4375 0.35524,15.0789 0.68483,19.6875 1.408,19.6875 0.51931,0 1.0567,0.28155 1.19421,0.62572 0.33239,0.8319 25.91142,17.58106 28.61093,18.73441 1.16102,0.49605 4.87352,2.71815 8.25,4.93807 6.86486,4.51335 13.468,8.35703 22.08616,12.85628 3.1916,1.6662 12.0389,6.30682 19.66062,10.3125 7.62173,4.00567 14.25158,7.28302 14.733,7.28302 0.48143,0 4.70798,1.71285 9.39233,3.8064 8.93392,3.99278 21.33067,8.9436 22.39447,8.9436 0.34313,0 -0.3876,-2.95312 -1.62382,-6.5625 -5.59103,-16.32375 -6.98663,-28.494 -6.34223,-55.3059 0.50543,-21.03068 1.7181,-34.17585 3.19815,-34.66853 0.55125,-0.18352 1.0515,1.40835 1.39455,4.4379 0.29415,2.59823 1.36673,9.61778 2.38343,15.59903 1.01662,5.98125 2.14305,13.30815 2.50312,16.28205 1.44525,11.93745 9.04455,35.05958 15.84728,48.21795 5.85442,11.32403 8.5965,14.5941 16.96897,20.23635 4.25948,2.8704 5.74283,3.37673 15.60222,5.32523 25.8206,5.103 49.3656,7.14442 103.0658,8.93602 85.0782,2.8386 186.7037,-2.35755 279.75,-14.30355 9.6937,-1.24462 21,-2.58187 25.125,-2.9718 14.3962,-1.36087 39.6279,-6.8166 54.9287,-11.87707 8.1648,-2.70038 10.8925,-3.7674 19.3213,-7.5582 3.8193,-1.71765 12.3742,-8.13743 12.3773,-9.28808 0,-0.4806 1.6882,-2.60242 3.7487,-4.7151 6.0183,-6.17062 9.2537,-15.43987 12.0395,-34.49205 1.4985,-10.24898 2.8303,-39.99053 2.9214,-65.23905 l 0.038,-10.5723 -3.1395,2.89837 c -7.4625,6.88928 -26.6259,18.08415 -42.9855,25.11113 -2.475,1.06305 -5.9473,2.61225 -7.7163,3.44265 -1.769,0.83032 -3.4464,1.27972 -3.7275,0.99855 -0.7848,-0.7848 2.638,-6.72248 5.3102,-9.21188 2.1344,-1.9884 10.7059,-6.21922 12.5998,-6.21922 0.7162,0 12.3747,-6.73433 16.5971,-9.58703 4.7602,-3.21615 12.8029,-11.78392 14.5168,-15.46462 1.9651,-4.22033 2.2026,-8.63018 1.3044,-24.21893 l -0.4839,-8.3955 -2.7003,1.36178 c -1.4851,0.74902 -3.544,1.6092 -4.5753,1.9116 -1.0312,0.30247 -8.7937,3.93217 -17.25,8.0661 -8.4562,4.13392 -17.5687,8.44912 -20.25,9.58942 -12.9111,5.4909 -16.4547,7.41893 -16.8102,9.14588 -0.1943,0.94395 -0.5541,5.0913 -0.7994,9.2163 -0.522,8.7762 -2.965,25.34355 -4.5463,30.8319 -0.6073,2.10757 -2.061,5.15272 -3.2303,6.76702 -1.9228,2.65433 -2.8727,3.16493 -9.9325,5.3391 -16.1637,4.97798 -37.9313,10.28438 -49.8063,12.1416 -2.8875,0.45158 -10.9875,1.80165 -18,3.00015 -33.0063,5.6412 -51.6251,7.11758 -89.625,7.107 -36.9856,-0.0105 -54.3316,-1.34707 -89.5331,-6.89985 l -8.1582,-1.28692 -4.1323,-7.875 c -2.2728,-4.33125 -5.2099,-9.5625 -6.5269,-11.625 -2.1167,-3.3147 -6.1666,-10.30673 -9.4225,-16.26743 -0.6061,-1.10955 -3.6727,-5.86207 -6.8149,-10.56112 l -5.7128,-8.54378 -5.3066,-0.87637 c -2.9186,-0.48195 -6.5916,-0.87668 -8.1621,-0.87705 -1.5706,-3.8e-4 -11.7993,-1.52955 -22.7306,-3.3981 -29.0459,-4.96515 -41.8443,-7.4457 -81.75,-15.8442 -4.7271,-0.9948 -25.7726,-7.21965 -30.35809,-8.9793 -1.31813,-0.5058 -1.36253,-0.0593 -0.91028,9.1578 0.26145,5.3292 0.8538,11.70637 1.31625,14.17132 1.13633,6.05723 4.42202,13.06298 7.63172,16.27268 2.714,2.71402 9.0262,6.62055 10.6977,6.62055 0.5161,0 4.2704,1.04895 8.343,2.33107 22.462,7.07145 54.1732,15.66893 57.7939,15.66893 0.913,0 6.6552,0.98707 12.7604,2.19345 11.5764,2.2875 28.966,4.90042 38.2879,5.75302 2.9907,0.27353 5.4375,0.79118 5.4375,1.15043 0,2.41245 -65.4399,-3.3882 -90.2703,-8.0016 -3.2426,-0.6024 -7.0821,-1.0953 -8.5323,-1.0953 -2.9528,0 -18.973,-3.70305 -26.4475,-6.11333 -6.1258,-1.97535 -17.06169,-6.4266 -18.23732,-7.4232 -0.48825,-0.41385 -2.72527,-2.00932 -4.9713,-3.54547 -4.68757,-3.2061 -6.49477,-5.8899 -7.47765,-11.10473 -0.98445,-5.22285 -2.90932,-23.2389 -3.48952,-32.65957 l -0.49095,-7.97123 -2.96595,-1.66695 c -1.63125,-0.9168 -3.12765,-1.50517 -3.32535,-1.30747 -0.42848,0.42847 0.95865,28.95285 1.9776,40.66695 1.24672,14.33235 0.99217,15.67762 -2.30565,12.1875 -5.66805,-5.99858 -9.08925,-19.54163 -10.5354,-41.70518 -0.7398,-11.33805 -0.55958,-29.72632 0.29977,-30.58567 0.43695,-0.43695 9.0135,2.54197 14.16255,4.91917 19.65015,9.07193 51.29847,18.02468 92.85917,26.26815 18.9865,3.7659 24.1765,4.5339 55.875,8.26785 103.3978,12.18008 204.5479,13.45635 269.392,3.39915 33.9249,-5.2617 55.2585,-11.04307 75.0906,-20.34937 3.8404,-1.80218 7.3981,-3.2766 7.9059,-3.2766 1.209,0 22.8225,-12.34485 24.8202,-14.17643 0.8478,-0.77715 3.2825,-2.34262 5.4107,-3.47887 2.1281,-1.13618 5.8202,-3.81075 8.2047,-5.94338 l 4.3354,-3.8775 -1.148,-21.89265 c -0.6314,-12.04102 -1.3528,-22.09747 -1.603,-22.34775 -0.2503,-0.2502 -7.4758,0.75638 -16.0568,2.23695 -40.6028,7.0056 -87.7411,12.83318 -118.9826,14.70938 -52.8716,3.1752 -100.2771,4.2309 -142.7465,3.1788 -84.0963,-2.08335 -127.929,-5.3892 -200.5886,-15.12818 -27.1346,-3.63697 -38.47837,-5.1225 -45.28402,-5.93017 -6.22125,-0.73838 -12.57937,-3.55793 -17.367,-7.70153 -4.04602,-3.50175 -10.0797,-10.6086 -11.69392,-13.77367 -2.63535,-5.16728 -4.48275,-13.02885 -5.11095,-21.75 -0.35655,-4.95 -1.4925,-17.1 -2.52435,-27 -1.03178,-9.9 -3.57608,-34.70625 -5.65395,-55.125 -2.0778,-20.41875 -4.97363,-48.6 -6.43515,-62.625 -1.46145,-14.02504 -2.96175,-30.56254 -3.33398,-36.75004 -0.56895,-9.45925 -5.77162,-61.84119 -14.6001,-147 -1.02637,-9.9 -2.21092,-22.21875 -2.63242,-27.375 -1.8453,-22.57499 -3.2295,-37.72621 -5.20755,-57 -2.36355,-23.030767 -2.27513,-24.273947 2.25427,-31.698767 1.1991,-1.96557 2.1801,-3.87233 2.1801,-4.23724 0,-1.27114 8.48648,-8.40854 12.29213,-10.33815 4.49242,-2.27778 12.53047,-4.36226 21.42742,-5.55671 8.81948,-1.18404 65.31927,-0.39529 82.15547,1.14691 7.0125,0.64234 17.6437,1.49855 23.625,1.90269 21.2402,1.43512 66.5294,8.03425 103.875,15.13574 6.6,1.25502 14.5312,2.56613 17.625,2.91356 6.8407,0.76822 46.6911,8.99517 74.2073,15.319777 6.3703,1.4642 12.3911,2.66219 13.3797,2.66219 0.9885,0 7.4202,1.35781 14.2927,3.01736 12.0517,2.91023 51.6249,12.49754 71.7453,17.38154 5.3625,1.3017 10.425,2.49046 11.25,2.64171 1.7042,0.31243 -9.0024,-3.7815 -18,-6.88271 -3.3,-1.13741 -12.075,-4.22 -19.5,-6.85019 -14.4128,-5.10548 -17.391,-6.01075 -48.75,-14.817887 -22.2394,-6.24591 -45.362,-12.14888 -50.625,-12.92403 -1.8563,-0.27339 -10.9688,-2.11497 -20.25,-4.09238 -32.4733,-6.91861 -72.6722,-14.22341 -78.2725,-14.22341 -1.8046,0 -6.1096,-0.49186 -9.5668,-1.09302 -15.3492,-2.66902 -60.1431,-8.29739 -89.5357,-11.25019 -37.22589,-3.73975 -54.30767,-5.03502 -71.62502,-5.43117 -15.66142,-0.35828 -18.72825,-0.22426 -27.5277,1.20291 -16.29472,2.6428 -35.33737,8.26996 -48.80355,14.42155 -2.58846,1.18245 -5.04376,2.14992 -5.45623,2.14992 -2.09421,0 -30.04682,15.81934 -30.58749,17.3105 -0.13751,0.37922 -0.67311,0.6895 -1.19024,0.6895 -1.02816,0 -13.36595,8.56783 -19.93476,13.843457 -2.26875,1.8221 -5.59008,4.07783 -7.38073,5.01273 -1.79065,0.93491 -4.6594,2.92551 -6.375,4.42358 -1.7156,1.49806 -7.67552,5.92654 -13.24427,9.84107 -11.56797,8.13165 -19.7155,13.99843 -25.125,18.09175 -2.0625,1.56067 -6.32403,4.59817 -9.47008,6.75 -3.14605,2.15182 -8.90739,6.31733 -12.80299,9.25668 -3.8956,2.93934 -7.73406,5.55124 -8.52991,5.80422 -0.79586,0.25297 -2.29077,1.24137 -3.32202,2.19643 -1.03125,0.95506 -5.75625,4.56087 -10.5,8.01292 -4.74375,3.45204 -8.7375,6.5556 -8.87499,6.8968 -0.13751,0.34119 -0.60395,0.62036 -1.03654,0.62036 -0.8336,0 -13.9162,9.18427 -17.08847,11.99647 -2.45646,2.17764 -7.99563,6.00353 -8.69198,6.00353 -0.56028,0 -8.63236,5.87443 -9.30802,6.77389 -0.89991,1.19798 -15.41701,11.22611 -16.25135,11.22611 -0.50827,0 -1.19401,0.46017 -1.52389,1.0226 -0.32987,0.56243 -4.37647,3.7182 -8.99245,7.01282 l -8.39269,5.99022 3.33019,3.26834 c 1.8316,1.79758 3.33019,3.63266 3.33019,4.07796 0,0.55824 -3.69818,0.71551 -11.91054,0.50651 -6.80202,-0.17311 -12.45982,0.005 -13.19118,0.41356 -1.04036,0.58222 0.22446,1.54068 6.74169,5.10877 4.41228,2.41566 9.21346,5.33871 10.6693,6.49566 1.45584,1.15696 3.04751,2.10356 3.53705,2.10356 2.99569,0 28.756,23.09137 33.04911,29.625 1.35522,2.0625 3.38614,4.7625 4.51314,6 3.81849,4.19287 10.43534,14.95327 16.37241,26.625 6.06441,11.92207 14.71071,31.73128 14.72961,33.74646 0.006,0.6207 1.20009,4.33479 2.65395,8.25354 3.83086,10.32576 10.59077,29.31119 13.21864,37.12504 5.84799,17.3886 7.5359,21.36322 17.51782,41.25 6.90354,13.7538 16.63321,28.3752 24.07273,36.17565 l 3.40895,3.57435 -3.06634,-5.7174 c -1.68649,-3.14453 -3.06634,-6.19988 -3.06634,-6.78968 0,-0.58972 -1.38345,-3.92317 -3.07435,-7.4076 -4.46637,-9.20385 -11.5172,-25.83967 -13.50781,-31.87042 -0.94672,-2.86823 -3.64041,-10.78365 -5.98598,-17.5899 -4.73063,-13.7271 -11.40128,-35.08402 -12.76694,-40.87504 -2.57858,-10.93426 -9.40378,-30.88733 -14.11009,-41.25 -1.12404,-2.475 -2.82579,-6.525 -3.78166,-9 -2.43588,-6.30717 -10.18546,-21.55216 -13.94851,-27.43955 -1.73646,-2.71676 -4.41099,-7.26165 -5.94339,-10.09977 -1.5324,-2.83812 -3.41394,-5.84657 -4.18122,-6.68544 -0.76727,-0.83889 -3.71892,-4.56274 -6.5592,-8.27524 -2.84029,-3.7125 -8.30214,-10.24163 -12.13743,-14.50918 l -6.97327,-7.75918 2.17243,-1.8178 c 1.19483,-0.9998 3.35367,-2.45927 4.79742,-3.24329 1.44375,-0.78402 3.80625,-2.55128 5.25,-3.92724 1.44375,-1.37596 9.7125,-7.71095 18.375,-14.07774 8.6625,-6.3668 17.26875,-12.80721 19.125,-14.31204 1.85625,-1.50482 4.63568,-3.45129 6.1765,-4.3255 1.54083,-0.87421 4.70027,-3.03814 7.02098,-4.80875 8.85983,-6.75969 17.19858,-12.59428 17.99962,-12.59428 0.45863,0 1.76039,-0.85867 2.8928,-1.90815 1.13241,-1.04948 5.48481,-4.21653 9.67202,-7.03787 4.1872,-2.82135 8.62558,-6.01227 9.86308,-7.09094 1.2375,-1.07866 2.59058,-1.96162 3.00683,-1.96213 0.41626,-5e-4 3.96001,-2.19607 7.875,-4.87905 11.03962,-7.56552 19.50174,-13.12186 19.98416,-13.12186 0.48134,0 18.99717,-12.04759 22.00901,-14.32047 1.03125,-0.77823 3.81644,-2.41397 6.1893,-3.63495 2.37285,-1.22099 6.9291,-3.98102 10.125,-6.1334 3.19588,-2.15238 9.5814,-5.73036 14.19003,-7.95105 8.10642,-3.90613 8.63161,-4.05008 16.125,-4.41958 8.41629,-0.41501 10.23505,0.0805 12.75339,3.47428 2.29431,3.09192 12.76958,46.54838 14.09798,58.48517 0.34432,3.09375 1.5087,10.51875 2.58757,16.5 5.51018,30.54841 15.4317,107.32172 15.4317,119.41144 0,2.24251 1.00493,15.02046 2.23313,28.39542 7.1763,78.15025 14.22705,196.8874 15.7623,265.44318 0.39262,17.53125 0.92602,34.15312 1.18537,36.9375 1.60118,17.1927 -7.6707,-13.794 -11.95027,-39.9375 -1.04663,-6.39375 -2.24895,-14.15625 -2.67188,-17.25 -2.022,-14.79045 -4.53645,-43.37543 -4.5522,-51.75 -0.0217,-11.70308 -14.59417,-159.19083 -16.89525,-171.00004 -0.20092,-1.03125 -0.6876,-6.48337 -1.0815,-12.11581 -1.06147,-15.1778 -8.17777,-68.5193 -14.39287,-107.88419 -1.66074,-10.51875 -3.33136,-21.5295 -3.71249,-24.46833 -1.99342,-15.37106 -14.34985,-57.57131 -17.96101,-61.34127 -1.96515,-2.05157 -8.37765,-2.43372 -13.91967,-0.82954 -2.43025,0.70346 -8.13113,3.20906 -12.66863,5.56802 -20.58309,10.70076 -24.39402,12.75994 -27.46998,14.84294 -1.80401,1.22164 -6.48627,3.99853 -10.40502,6.17086 -3.91875,2.17233 -7.63125,4.23101 -8.25,4.57484 -3.16536,1.75894 -17.67609,10.82691 -18,11.24846 -0.73225,0.95301 -9.04411,5.98468 -9.95206,6.02459 -0.50762,0.0223 -2.77919,1.33578 -5.04794,2.91882 -2.26875,1.58304 -11.8875,7.99296 -21.375,14.24427 -28.83399,18.9987 -31.875,21.53503 -31.875,26.58527 0,3.10134 1.31762,5.60401 5.10205,9.69082 4.22739,4.56516 7.64246,9.05157 9.12878,11.9926 0.58297,1.15355 2.12745,3.3473 3.43218,4.875 2.40801,2.81954 13.83699,20.82328 13.83699,21.797 0,0.29218 2.2169,4.7386 4.92644,9.88094 5.53708,10.50863 13.82356,28.37718 13.82356,29.80843 0,0.51654 1.38517,4.3934 3.07815,8.61522 3.98058,9.92643 14.92185,41.70518 14.92185,43.34024 0,3.15631 12.43687,42.94718 15.83989,50.67863 0.74872,1.701 1.69553,4.58415 2.10402,6.40688 0.4085,1.8228 1.78644,5.83102 3.0621,8.90722 1.27566,3.0762 3.68243,8.96813 5.34839,13.09313 1.66594,4.125 3.29461,7.8375 3.61926,8.25 0.88741,1.12747 6.02634,13.263 6.02634,14.23102 0,0.80145 6.99825,14.84445 15.89412,31.89398 4.54036,8.7018 13.55036,24.05782 15.0345,25.62367 1.20243,1.26863 5.07138,7.2012 5.07138,7.77638 0,0.68025 5.63391,8.76667 7.60005,10.90837 2.16046,2.35343 8.81046,10.8594 10.50831,13.44113 2.43072,3.69607 22.18576,22.97685 28.78581,28.09462 7.10565,5.50988 9.3558,7.51853 9.3558,8.3514 0,1.46895 -28.93266,-4.8237 -41.62497,-9.0531 -18.58399,-6.19267 -24.76755,-9.37357 -35.38999,-18.20497 -3.10098,-2.57813 -5.94617,-4.6875 -6.32264,-4.6875 -0.37647,0 -5.02623,-4.30313 -10.33278,-9.5625 -17.02275,-16.87148 -28.28868,-27.16883 -29.76277,-27.20408 -0.3805,-0.009 -2.28323,-1.47067 -4.2283,-3.24787 -1.94506,-1.77728 -6.92366,-5.51535 -11.06355,-8.30685 -4.13988,-2.79143 -7.71526,-5.3799 -7.94527,-5.75205 -0.23002,-0.37215 -0.88036,-0.67665 -1.44521,-0.67665 -0.95071,0 -3.90803,-1.59195 -14.63449,-7.87755 -6.57063,-3.85035 -20.41785,-9.61515 -33,-13.73835 -27.88847,-9.13905 -48.37614,-12.45788 -76.875,-12.45293 -29.79668,0.008 -54.9426,4.18088 -83.16244,13.81005 -6.13934,2.0949 -11.32285,3.64845 -11.51891,3.4524 -0.82532,-0.8253 6.63336,-8.43262 12.91014,-13.1673 7.51655,-5.66992 23.22328,-14.55585 34.14621,-19.31782 6.2511,-2.72528 16.7918,-6.5322 34.875,-12.5958 13.57491,-4.5519 28.92913,-8.7072 41.25,-11.1636 3.3,-0.6579 11.4,-2.37945 18,-3.82553 10.65773,-2.33527 31.09785,-6.18562 39.9375,-7.52317 2.27913,-0.34485 3.18702,-0.83753 3.18582,-1.72883 -10e-4,-1.18357 -5.54844,-16.3602 -7.81685,-21.3876 -3.65249,-8.0949 -9.06458,-20.92912 -10.19834,-24.18435 -1.54937,-4.44855 -12.75597,-26.21402 -15.86336,-30.8098 -1.16587,-1.72431 -2.11977,-3.49988 -2.11977,-3.94569 0,-0.82548 -7.30329,-12.86034 -8.21921,-13.54417 -0.65793,-0.49122 -8.28493,-10.98222 -10.08717,-13.875 -2.24905,-3.60996 -21.02088,-21.91708 -23.79094,-23.20199 -1.39023,-0.64487 -5.55891,-3.01153 -9.26376,-5.25926 -8.53785,-5.17991 -12.99559,-6.04947 -27.76392,-5.41581 -11.82553,0.50739 -23.37397,2.61567 -37.875,6.91445 -5.15625,1.52856 -10.725,3.11649 -12.375,3.52875 -3.66993,0.91693 -11.20138,3.43083 -14.25,4.75647 -1.2375,0.53809 -5.71008,2.34259 -9.93905,4.00998 -4.22898,1.6674 -8.27898,3.36879 -9,3.78087 -3.10308,1.77346 -13.22863,6.01154 -14.36271,6.01154 -0.68171,0 -1.90521,0.46375 -2.71886,1.03056 -2.67379,1.8626 -13.87203,6.7018 -14.36581,6.20801 -0.78278,-0.78277 41.88333,-42.42271 44.21503,-43.15159 0.50677,-0.15842 3.11515,-2.3592 5.7964,-4.89063 7.65558,-7.22779 14.71508,-13.19635 15.6084,-13.19635 0.44939,0 1.08696,-0.46886 1.41683,-1.04192 0.73438,-1.27577 18.06095,-15.53759 26.98042,-22.20808 3.58524,-2.68125 8.22878,-6.33756 10.31898,-8.12514 2.0902,-1.78758 4.98162,-3.87662 6.42537,-4.64232 1.44375,-0.7657 4.48125,-2.9263 6.75,-4.80133 7.83435,-6.47479 15.38265,-12.2092 17.625,-13.38965 1.2375,-0.65146 3.43125,-2.27918 4.875,-3.61717 1.44375,-1.33798 9.7125,-7.74195 18.375,-14.23104 8.6625,-6.48908 16.93125,-12.87268 18.375,-14.18576 1.44375,-1.31309 3.6375,-2.91362 4.875,-3.55674 2.42968,-1.26269 10.15978,-7.04212 12.22855,-9.1427 1.72037,-1.74684 9.64004,-7.64331 12.97634,-9.66136 1.4877,-0.89987 3.5127,-2.43355 4.5,-3.40819 0.98731,-0.97463 8.88261,-7.04689 17.54511,-13.49392 8.6625,-6.44701 17.1,-12.8552 18.75,-14.24041 1.65,-1.38521 3.83526,-2.99348 4.85614,-3.57392 2.63801,-1.49991 12.99806,-8.93901 13.89386,-9.97658 1.06003,-1.22779 10.83629,-8.12772 13.32966,-9.40786 1.14381,-0.58726 3.12324,-1.99945 4.39873,-3.13821 1.27549,-1.13876 6.34584,-4.874477 11.26745,-8.301587 4.9216,-3.42711 12.56092,-8.74603 16.97627,-11.81981 4.41534,-3.07378 8.59304,-6.11128 9.28378,-6.75 0.69073,-0.63872 4.34433,-3.01755 8.11911,-5.2863 3.77478,-2.26875 7.43705,-4.65825 8.13838,-5.30998 3.43742,-3.19436 20.39246,-13.80815 29.69919,-18.59156 11.14923,-5.73042 27.90165,-12.84846 30.23904,-12.84846 0.77621,0 4.78886,-1.01047 8.91701,-2.24549 9.00143,-2.69295 22.29848,-5.46125 34.89263,-7.26429 7.3668,-1.05466 14.40562,-1.32436 34.73872,-1.33108 27.95325,-0.009 31.09868,0.28758 80.25002,7.57263 9.9,1.46735 21.0375,2.94082 24.75,3.27439 8.1538,0.73261 38.1304,6.02234 63.75,11.24942 10.3125,2.10403 22.4625,4.51022 27,5.34708 16.9702,3.12988 46.4593,10.13251 70.3345,16.70202 5.2714,1.4505 11.5152,2.98803 13.875,3.41673 2.3598,0.4287 11.0405,2.83932 19.2905,5.35695 8.25,2.51761 18.2377,5.55012 22.1949,6.7389 3.9571,1.18878 9.4492,3.00996 12.2046,4.04707 2.7553,1.03712 5.844,1.88567 6.8635,1.88567 1.0197,0 12.0651,3.73648 24.5454,8.3033 12.4804,4.56682 24.7166,8.892607 27.1916,9.612857 4.4612,1.29829 29.3089,11.06073 30.75,12.08146 0.4125,0.29216 4.125,1.78933 8.25,3.32703 4.125,1.5377 9.2199,3.62663 11.322,4.64207 5.0894,2.45844 11.9834,8.45374 17.2339,14.98718 l 4.2824,5.3289 9.0808,0.49829 c 20.1945,1.10815 38.1066,4.89257 60.1784,12.71435 5.1361,1.82014 15.9991,6.94332 16.7775,7.91262 0.2062,0.25681 4.3252,3.09186 9.1531,6.30009 12.3492,8.20609 23.061,19.63035 31.0985,33.16685 6.7291,11.33284 12.6328,25.24404 13.7722,32.45183 0.4388,2.77649 1.2594,7.07317 1.8234,9.54817 1.8947,8.31472 2.8337,19.40851 2.793,33 -0.046,15.62628 -1.2381,25.94364 -5.4993,47.625 -1.426,7.25596 -7.9587,23.95987 -12.4313,31.78684 -2.384,4.17199 -4.5549,8.09229 -4.8241,8.71179 -0.2691,0.6195 -1.889,2.47637 -3.5997,4.12637 l -3.1101,3 -6.9004,-0.0302 c -7.6437,-0.0334 -11.057,-1.26648 -15.0005,-5.41904 -2.0507,-2.1594 -7.2748,-14.74078 -7.2748,-17.51997 0,-0.76453 -0.9871,-4.9053 -2.1935,-9.20172 -6.4465,-22.95808 -9.9094,-51.00675 -10.0101,-81.07912 -0.062,-18.6871 0.8913,-25.3943 4.6929,-33 2.4786,-4.95887 7.0931,-10.2327 10.4908,-11.98973 1.2072,-0.62427 3.8804,-1.4965 5.9404,-1.9383 l 3.7455,-0.80325 -7.1939,-7.11256 c -8.976,-8.87441 -12.0786,-11.33821 -18.2221,-14.4701 -2.6813,-1.36688 -5.0438,-2.72549 -5.25,-3.01913 -0.5865,-0.83496 -12.5779,-5.75088 -18.1783,-7.45227 -6.8725,-2.08785 -20.2061,-3.96372 -26.2266,-3.68975 l -4.9465,0.22509 4.3019,10.57088 c 2.3661,5.81399 5.3386,13.74524 6.6055,17.625 6.1166,18.73039 15.9058,53.4332 18.8093,66.67912 8.0654,36.79485 19.6347,96.98031 19.6347,102.14307 0,1.20279 1.1722,9.67829 2.6048,18.83444 7.4886,47.85923 14.8245,106.44803 15.7644,125.90295 0.457,9.45908 0.3891,10.3101 -0.8744,10.9596 -5.9135,3.03998 -40.2793,9.57518 -65.4948,12.45495 -35.866,4.0962 -63.5713,5.2986 -121.875,5.2896 -70.6079,-0.0105 -132.1861,-2.94292 -196.875,-9.37417 -8.0438,-0.79973 -19.0125,-1.80728 -24.375,-2.23905 -11.2448,-0.90533 -36.0377,-4.00553 -47.8619,-5.9847 -5.236,-0.87645 -9.6125,-2.11185 -12.3446,-3.48473 -5.6055,-2.81677 -11.8816,-9.25507 -14.5022,-14.87692 -2.2919,-4.91678 -4.4147,-13.9716 -4.4157,-18.8352 -3e-4,-1.6968 -0.3459,-4.90305 -0.7679,-7.125 -0.9905,-5.21468 -5.4618,-34.5498 -7.4748,-49.0398 -2.1322,-15.3492 -6.559,-48.57045 -7.1455,-53.625 l -0.4787,-4.12504 6.8484,-1.31783 c 3.7667,-0.7248 8.1669,-1.99042 9.7783,-2.8125 1.6114,-0.82206 3.5498,-1.49467 4.3074,-1.49467 2.3645,0 11.1487,-6.32895 17.8531,-12.86308 5.9494,-5.7983 13.0786,-14.57764 13.0795,-16.10716 3e-4,-0.36012 1.3386,-2.83042 2.9743,-5.48956 1.6356,-2.65915 4.1915,-7.72165 5.6798,-11.25 1.4883,-3.52836 3.1719,-7.44611 3.7413,-8.70612 3.2523,-7.19578 8.5293,-33.14474 10.1126,-49.72604 0.9699,-10.1577 0.9493,-35.37588 -0.037,-45.21608 -0.9099,-9.07978 -3.94,-28.57936 -5.6939,-36.64196 -1.9306,-8.87487 -8.0137,-26.10505 -12.5889,-35.6572 -2.3038,-4.81005 -4.1888,-9.08553 -4.1888,-9.50107 0,-1.55547 -10.7245,-17.96647 -14.2915,-21.86931 -2.0397,-2.23176 -3.7085,-4.33944 -3.7085,-4.68375 0,-0.34432 -2.2596,-2.90305 -5.0213,-5.68608 -2.7617,-2.78302 -4.7559,-5.32274 -4.4316,-5.64381 0.8703,-0.86168 31.3806,-0.53905 43.9529,0.46477 27.0088,2.15649 58.2159,6.22346 90.75,11.82671 10.9312,1.88265 22.4062,3.68989 25.5,4.01607 12.0531,1.27081 69.5056,11.63852 87.6663,15.81996 3.4602,0.79671 8.6914,1.78637 11.625,2.19925 8.489,1.19477 44.6433,10.50951 62.3337,16.05956 3.3,1.03531 6.6076,1.88745 7.3504,1.89364 2.6885,0.0224 31.4406,10.11332 44.7279,15.69784 3.0681,1.28948 5.9147,2.23243 6.3256,2.09544 0.411,-0.13699 -1.19,-1.57836 -3.5578,-3.20305 -2.3677,-1.62469 -5.0232,-3.55375 -5.9012,-4.2868 -1.7799,-1.4861 -19.555,-10.29217 -20.7748,-10.29217 -0.4275,0 -4.9157,-1.63892 -9.9737,-3.64204 -14.5012,-5.74289 -35.4651,-12.28128 -51.5714,-16.08454 -4.3313,-1.02275 -14.625,-3.56154 -22.875,-5.64174 -18.8507,-4.75311 -45.401,-10.63168 -48.0176,-10.63168 -1.0915,0 -8.691,-1.33619 -16.8877,-2.96933 -8.1967,-1.63312 -23.9462,-4.52211 -34.9989,-6.41997 -11.0527,-1.89785 -23.4708,-4.07706 -27.5958,-4.84267 -4.125,-0.76562 -11.0438,-1.92652 -15.375,-2.57978 -4.3313,-0.65326 -17.4938,-2.71514 -29.25,-4.58196 C 1047.3942,88.165293 999.44328,85.457913 970.07268,92.503293 l -6.75,1.61918 4.125,0.67367 c 8.45145,1.38024 22.03298,5.00024 28.72035,7.655067 8.29637,3.29355 14.55357,6.1258 15.76547,7.13603 0.4891,0.40769 3.9267,2.84529 7.6392,5.41689 3.7125,2.5716 9.6304,7.54667 13.1509,11.05572 6.4572,6.43622 15.0312,16.98805 15.7241,19.35108 0.2062,0.70346 1.9688,4.16488 3.9168,7.69206 1.948,3.52718 4.5281,8.58968 5.7337,11.25 3.0533,6.738 8.3495,22.53434 8.3495,24.90327 0,1.08108 0.4936,4.09592 1.0969,6.69964 2.5128,10.84451 3.5226,20.38274 3.9297,37.12112 0.4518,18.57317 -0.2677,29.95822 -2.8519,45.12963 -0.8182,4.8033 -1.7919,10.92704 -2.1638,13.60829 -1.5399,11.10088 -9.0346,31.9114 -17.0166,47.25 -5.5935,10.74843 -10.3295,16.51987 -17.2789,21.0565 -5.1651,3.37182 -6.0446,3.6935 -10.0989,3.6935 -5.2337,0 -7.4582,-1.01505 -12.0907,-5.51735 -7.3452,-7.1387 -13.36424,-23.92487 -16.98119,-47.35765 -0.44565,-2.8875 -1.79865,-10.9875 -3.0066,-18 -8.02035,-46.56162 -9.4806,-86.31593 -3.80978,-103.72133 2.60655,-8.00037 7.96028,-18.52214 11.86793,-23.32454 l 2.68184,-3.29587 -1.33177,-2.32055 c -0.73252,-1.2763 -2.8617,-5.26544 -4.7316,-8.86475 -3.42232,-6.58763 -7.22707,-11.06627 -16.35127,-19.24749 -6.53153,-5.85657 -17.2173,-10.4532 -29.17155,-12.54856 l -2.93325,-0.51414 0.48412,19.79361 c 0.71288,29.14674 3.04965,60.43284 7.7244,103.41862 1.45793,13.40625 2.93468,28.59375 3.2817,33.75 0.7284,10.82291 5.74688,54.23006 11.70585,101.25 2.27408,17.94379 4.6308,37.18129 5.2371,42.75004 1.95825,17.98492 7.12215,54.55717 10.87155,76.99552 3.0792,18.42773 4.05825,22.79603 6.21945,27.75 4.2561,9.75608 8.84347,13.82393 20.24277,17.95013 3.063,1.10865 47.5449,7.67047 65.3495,9.64012 25.1068,2.7774 33.1328,3.4782 47.625,4.1586 8.4562,0.39698 16.8937,0.89723 18.75,1.11158 5.9894,0.6918 45.4665,2.62222 69.375,3.39247 46.2874,1.49123 124.9884,0.83873 180.375,-1.4955 58.4188,-2.46202 74.3113,-3.6882 93.75,-7.2336 18.5887,-3.3903 31.2091,-7.72552 39.1975,-13.46467 2.0352,-1.46213 4.1071,-2.5023 4.6043,-2.31158 1.1396,0.43733 5.6982,8.9139 5.6982,10.59578 0,0.68962 0.8364,4.18612 1.8586,7.77 2.1228,7.4421 3.723,16.94445 4.9494,29.39115 1.639,16.63305 0.3563,167.39677 -1.576,185.25 -0.4242,3.91875 -1.6112,10.33125 -2.638,14.25 -1.0267,3.91875 -2.2181,8.475 -2.6476,10.125 -3.1721,12.18735 -15.9057,28.941 -28.617,37.65165 -10.7057,7.33628 -21.0809,12.3099 -28.7044,13.7601 -1.65,0.31388 -7.2188,1.42965 -12.375,2.47943 -22.6351,4.6086 -73.8023,12.64547 -93.375,14.66647 -71.5501,7.3882 -109.556,10.264 -159.375,12.0592 -23.0801,0.8317 -116.0207,0.8171 -136.9058,-0.022 z m 104.2808,-355.85688 c -2.475,-0.52665 -8.55,-1.81612 -13.5,-2.86545 -16.341,-3.4641 -37.8014,-8.73727 -52.125,-12.80797 -2.2688,-0.64478 -4.8521,-1.1763 -5.7408,-1.18125 -3.8292,-0.021 -23.2855,-6.98753 -28.3842,-10.16318 -9.0853,-5.65852 -13.0142,-10.09395 -17.9464,-20.25975 -4.8954,-10.0899 -9.9493,-23.31367 -13.1704,-34.46092 l -2.1671,-7.5 -0.046,4.0287 c -0.025,2.2158 0.4473,7.44705 1.0495,11.625 0.6023,4.17795 1.9604,14.17755 3.0179,22.2213 2.415,18.36975 4.2195,23.8857 9.7743,29.87752 7.8598,8.478 16.8854,10.5726 74.6127,17.31563 44.2889,5.17327 53.291,6.01455 44.625,4.17037 z m -133.3783,-92.80102 c -0.208,-0.51563 -0.3783,-0.0937 -0.3783,0.9375 0,1.03125 0.1703,1.45312 0.3783,0.9375 0.2081,-0.51563 0.2081,-1.35938 0,-1.875 z M 741.10954,753.31665 c -5.53433,-2.72775 -13.52936,-14.22772 -16.86022,-24.25162 -3.6767,-11.06468 -6.79574,-25.93793 -8.08353,-38.54655 -1.34257,-13.14488 -0.55096,-38.40735 1.50269,-47.95515 3.74612,-17.41643 7.63133,-25.51643 14.17709,-29.55698 4.87037,-3.00637 11.45082,-1.53795 16.37683,3.65453 2.88066,3.03652 9.85784,14.46795 10.45612,17.13135 0.23446,1.04377 1.23478,4.53082 2.22295,7.749 1.95885,6.37942 2.10461,7.2738 1.18555,7.2738 -0.75447,0 -3.13891,-4.88475 -3.13891,-6.43035 0,-1.50098 -2.66958,-6.70043 -5.41188,-10.54058 -2.84703,-3.98677 -9.25606,-7.41607 -11.90376,-6.36937 -4.83977,1.91332 -8.26398,6.9867 -11.48175,17.0115 -2.96248,9.2295 -3.77883,16.00852 -3.74259,31.0788 0.0496,20.6112 3.05642,35.8053 10.09906,51.03232 4.7402,10.24883 4.67767,10.1586 8.90026,12.84578 4.01487,2.55495 5.95465,2.64787 9.74484,0.4665 2.28815,-1.31693 3.42051,-2.8206 5.53731,-7.35323 1.46353,-3.1338 3.35531,-8.34877 4.20397,-11.58885 0.84865,-3.24007 1.71435,-6.06232 1.92378,-6.2718 2.74988,-2.74987 -1.34951,17.33055 -5.56188,27.24428 -1.75272,4.125 -4.25453,8.63715 -5.55957,10.0269 -4.2296,4.50442 -9.69644,5.75985 -14.58636,3.34972 z M 908.94808,539.66423 c -13.1382,-3.75278 -14.69625,-4.28288 -17.62497,-5.99685 -1.65,-0.96563 -5.7,-4.32293 -9,-7.46063 -3.3,-3.13777 -6.71661,-6.00367 -7.59247,-6.3687 -0.87587,-0.36502 -2.89508,-2.2914 -4.48715,-4.28085 -3.60056,-4.49925 -10.66209,-12.73927 -12.69405,-14.81257 -1.97634,-2.01653 -8.60133,-11.3202 -8.60133,-12.07905 0,-0.32123 -0.92813,-1.78208 -2.0625,-3.2463 -2.97066,-3.8346 -12.64617,-19.386 -14.5302,-23.35425 -0.88128,-1.85625 -1.9516,-4.05 -2.37848,-4.875 -8.43159,-16.29533 -17.02882,-34.51403 -17.02882,-36.0864 0,-0.6504 -1.64615,-5.11583 -3.65811,-9.9231 -2.01196,-4.80728 -4.26383,-10.428 -5.00415,-12.4905 -0.74031,-2.0625 -1.58185,-4.0875 -1.87007,-4.5 -0.97431,-1.39448 -7.35225,-21.72701 -7.76728,-24.76177 -0.50695,-3.70676 -5.93837,-20.93182 -11.34785,-35.98827 -2.22304,-6.1875 -4.61625,-12.9375 -5.31823,-15 -3.08489,-9.06377 -4.60893,-12.63504 -9.76191,-22.875 -3.0099,-5.98125 -6.27127,-12.39375 -7.2475,-14.25 -0.97623,-1.85625 -2.42183,-4.70483 -3.21243,-6.33018 -0.79061,-1.62535 -2.95622,-5.03816 -4.81247,-7.58402 -1.85625,-2.54585 -5.23125,-7.24932 -7.5,-10.45215 -2.26875,-3.20282 -4.83597,-6.54002 -5.70492,-7.41598 -2.36505,-2.38411 -4.04508,-6.08273 -4.04508,-8.9053 0,-4.32598 3.21305,-7.94051 12.50039,-14.06237 4.69346,-3.09375 10.42645,-7.02031 12.73999,-8.72567 2.31353,-1.70538 6.32183,-4.19662 8.90734,-5.5361 2.58551,-1.33948 5.56867,-3.18105 6.62925,-4.09238 1.58116,-1.35865 14.97786,-9.98279 19.22303,-12.37485 7.45942,-4.20321 13.27612,-7.64798 17.53334,-10.38359 5.26461,-3.38293 12.51798,-7.32603 28.69936,-15.60162 10.31352,-5.2746 15.27606,-6.40204 20.60117,-4.68036 3.69879,1.19586 3.48899,0.83565 6.92756,11.89457 7.44641,23.94862 12.34701,46.62917 14.74685,68.25 0.48075,4.33125 2.02457,16.48125 3.43071,27 8.60846,64.39669 12.94331,104.64878 18.33446,170.25004 3.99315,48.59047 4.4979,54.10312 5.97412,65.25 1.45695,11.0007 4.83203,30.28177 5.694,32.52802 0.6384,1.66365 -0.91552,1.5423 -8.6916,-0.67882 z"
         id="path170" />
      <text
         xml:space="preserve"
         style="font-style:normal;font-variant:normal;font-weight:bold;font-stretch:normal;font-size:321.8px;line-height:1.25;font-family:'tutano.cc';-inkscape-font-specification:'tutano.cc, Bold';font-variant-ligatures:normal;font-variant-caps:normal;font-variant-numeric:normal;font-variant-east-asian:normal;letter-spacing:0px;word-spacing:0px;fill:#42679e;fill-opacity:1;stroke:none;stroke-width:12.8973"
         x="683.69885"
         y="868.56232"
         id="text2773"
         transform="scale(0.75475658,1.3249305)"><tspan
           sodipodi:role="line"
           id="tspan2771"
           x="683.69885"
           y="868.56232"
           style="font-style:normal;font-variant:normal;font-weight:bold;font-stretch:normal;font-size:321.8px;font-family:'tutano.cc';-inkscape-font-specification:'tutano.cc, Bold';font-variant-ligatures:normal;font-variant-caps:normal;font-variant-numeric:normal;font-variant-east-asian:normal;fill:#42679e;fill-opacity:1;stroke-width:12.8973">COMMUTER</tspan></text>
    </g>
  </g>
</svg>
